<svg width="97" height="28" viewBox="0 0 97 28" fill="none" xmlns="http://www.w3.org/2000/svg">
<path fill-rule="evenodd" clip-rule="evenodd" d="M33.6547 0.000347452L33.6546 0H38.3385L47.3594 27.4357H41.8081L39.9736 21.2628H30.1115L28.2769 27.436H22.7256L31.7464 0.000347452H33.6547ZM35.0425 4.67024L38.7506 17.1474H31.3345L35.0425 4.67024ZM0 27.4357V0.171521H7.98002C13.5313 0.171521 18.5622 2.05772 18.3887 8.40223C18.2773 12.4783 16.7338 14.8558 13.1601 16.0348L20.4706 27.4358H14.5723L8.40054 16.8715C7.41869 16.9423 6.35468 16.9759 5.20436 16.9759V27.4357H0ZM5.02995 12.8604V4.97267H9.19343C11.397 4.97267 13.1834 6.7384 13.1834 8.91655C13.1834 11.0947 11.397 12.8604 9.19343 12.8604H5.02995ZM51.6974 0H71.821V1.37178L69.5657 5.14419L58.4631 22.8059H71.474L71.821 27.4357H50.3096V26.0639L64.3614 4.80124H52.0444L51.6974 0ZM96.4534 0H76.3299L76.6768 4.80124H88.9938L74.942 26.0639V27.4357H96.4534L96.1064 22.8059H83.0955L94.1982 5.14419L96.4534 1.37178V0Z" fill="#FBF8FE"/>
</svg>
