<svg width="142" height="41" viewBox="0 0 142 41" fill="none" xmlns="http://www.w3.org/2000/svg">
<path fill-rule="evenodd" clip-rule="evenodd" d="M49.8428 0.0018032L49.8427 0.00146484H56.7164L69.9547 40.2637H61.8081L59.1159 31.2047H44.6427L41.9504 40.2641H33.8038L47.042 0.0018032H49.8428ZM51.8793 6.85433L57.3211 25.1654H46.4375L51.8793 6.85433ZM0.453613 40.2637V0.253083H12.1644C20.311 0.253083 27.6939 3.02111 27.4393 12.3318C27.2758 18.3134 25.0107 21.8024 19.7664 23.5326L30.4947 40.2638H21.8389L12.7816 24.7606C11.3407 24.8644 9.77924 24.9137 8.09109 24.9137V40.2637H0.453613ZM7.83559 18.8745V7.29907H13.9456C17.1794 7.29907 19.8009 9.89031 19.8009 13.0868C19.8009 16.2832 17.1794 18.8745 13.9456 18.8745H7.83559ZM76.3205 0.00146484H105.852V2.01458L102.543 7.55064L86.2493 33.4695H105.343L105.852 40.2637H74.2839V38.2506L94.9051 7.04736H76.8297L76.3205 0.00146484ZM142 0.00146484H112.469L112.978 7.04736H131.053L110.432 38.2506V40.2637H142L141.491 33.4695H122.397L138.691 7.55064L142 2.01458V0.00146484Z" fill="#170925"/>
</svg>
