<svg width="712" height="807" viewBox="0 0 712 807" fill="none" xmlns="http://www.w3.org/2000/svg">
<g style="mix-blend-mode:soft-light" opacity="0.3">
<mask id="path-1-inside-1" fill="#2A1245">
<path fill-rule="evenodd" clip-rule="evenodd" d="M207.391 104.25C195.914 113.109 185.554 123.354 176.54 134.756C179.351 105.004 190.96 76.7949 209.854 53.7983C228.749 30.8017 254.057 14.0816 282.484 5.81266C310.912 -2.45627 341.145 -1.89136 369.251 7.43394C397.357 16.7592 422.035 34.4133 440.075 58.1001C457.155 80.4301 467.525 107.248 469.95 135.362C438.786 96.6959 393.936 71.819 344.916 66.0104C295.896 60.2018 246.566 73.9187 207.391 104.25ZM542.73 85.1734C525.723 62.8528 502.706 45.9597 476.438 36.518C493.653 60.1308 505.214 87.4542 510.214 116.342C515.215 145.23 513.518 174.896 505.257 203.01C523.957 214.879 541.287 228.82 556.927 244.573C569.805 219.389 575.309 191.017 572.795 162.785C570.28 134.553 559.851 107.63 542.73 85.1734ZM684.763 226.309C667.033 203.094 642.847 185.755 615.303 176.513C615.642 212.23 605.864 247.3 587.122 277.587L598.959 293.086L610.954 308.792C644.683 298.146 680.721 297.462 714.822 306.82C712.96 277.558 702.493 249.524 684.763 226.309ZM512.276 548.859C447.754 599.156 355.09 587.086 305.305 521.899C255.521 456.713 267.468 363.094 331.99 312.797C396.512 262.5 489.176 274.57 538.961 339.757C588.746 404.943 576.798 498.561 512.276 548.859ZM660.697 407.672C654.351 386.387 645.531 365.938 634.422 346.751C661.797 340.418 690.394 342.127 716.839 351.678C743.284 361.229 766.473 378.222 783.67 400.654C800.82 422.975 811.213 449.831 813.597 477.985C795.357 455.153 772.124 436.906 745.724 424.68C719.324 412.454 690.476 406.581 661.45 407.523L660.697 407.672ZM643.33 745.951C656.533 740.034 668.969 732.508 680.362 723.539C719.339 692.949 744.985 648.219 751.857 598.841C758.729 549.463 746.287 499.323 717.17 459.06C743.473 468.56 766.519 485.497 783.567 507.852C801.67 531.49 812.313 560.085 814.112 589.917C815.912 619.749 808.785 649.437 793.657 675.121C778.53 700.805 756.102 721.296 729.292 733.929C702.481 746.561 672.529 750.75 643.33 745.951ZM239.715 379.263C250.456 339.412 273.822 304.211 306.238 279.046C329.136 261.097 355.831 248.739 384.238 242.936C412.645 237.133 441.995 238.043 469.997 245.595C468.129 216.404 457.643 188.449 439.893 165.338C415.976 134.042 380.733 113.625 341.917 108.581C303.101 103.536 263.892 114.277 232.914 138.44C201.936 162.602 181.728 198.208 176.735 237.424C174.263 256.841 175.6 276.561 180.671 295.456C185.742 314.352 194.447 332.053 206.289 347.55C215.656 359.882 226.945 370.593 239.715 379.263ZM654.257 690.07C623.232 714.197 583.996 724.895 545.169 719.815C506.342 714.734 471.098 694.29 447.181 662.973C437.664 650.614 430.202 636.771 425.086 621.989C474.822 621.392 522.311 600.972 557.218 565.175C592.126 529.378 611.626 481.1 611.474 430.849C639.006 440.159 663.159 457.563 680.837 480.831C704.754 512.147 715.388 551.774 710.405 591.007C705.421 630.24 685.226 665.87 654.257 690.07ZM260.511 688.386C298.675 693.83 337.433 683.982 368.507 660.944C375.442 655.513 381.865 649.444 387.692 642.815C384.261 634.766 381.52 626.433 379.5 617.909C336.595 608.027 298.428 583.373 271.546 548.173C244.663 512.974 230.739 469.422 232.16 424.986C224.519 420.891 217.252 416.121 210.444 410.732C202.569 414.658 195.106 419.376 188.168 424.814C158.229 449.337 138.969 484.716 134.502 523.393C130.034 562.07 140.713 600.979 164.258 631.808C187.803 662.637 222.347 682.942 260.511 688.386ZM506.631 775.704C475.624 799.818 436.418 810.526 397.608 805.483C358.798 800.439 323.55 780.054 299.593 748.797C296.085 744.214 292.88 739.402 290 734.393C327.97 732.189 364.393 718.441 394.492 694.952C399.593 690.906 404.421 686.522 408.943 681.827C410.346 684.354 411.963 686.755 413.774 689.002C441.089 724.964 480.237 749.867 524.141 759.21C518.884 765.304 513.016 770.831 506.631 775.704ZM98.1417 483.183C109.909 446.654 132.328 414.57 162.46 391.139C167.552 387.095 172.904 383.397 178.483 380.072C176.408 378.07 174.518 375.88 172.838 373.531C145.317 337.606 131.557 292.851 134.088 247.495C126.734 251.168 119.791 255.626 113.379 260.794C98.0071 272.762 85.1231 287.677 75.4647 304.683C65.8062 321.689 59.563 340.453 57.0926 359.9C54.6222 379.348 55.9731 399.096 61.0679 418.016C66.1627 436.935 74.9014 454.653 86.7836 470.155C90.2779 474.749 94.0724 479.101 98.1417 483.183ZM235.001 765.021C203.927 788.058 165.169 797.907 127.005 792.463C88.8413 787.018 54.2974 766.713 30.7524 735.884C7.20746 705.055 -3.47181 666.146 0.995705 627.469C5.46322 588.793 24.7233 553.414 54.662 528.89C60.4054 524.482 66.4885 520.545 72.8531 517.117C77.9757 522.44 83.5009 527.351 89.3788 531.807C86.6537 577.902 100.534 623.435 128.455 659.995C156.377 696.554 196.452 721.668 241.276 730.696C243.87 737.527 247.106 744.091 250.939 750.298C246.054 755.658 240.721 760.583 235.001 765.021Z"/>
</mask>
<path d="M176.54 134.756L174.549 134.567L173.912 141.304L178.109 135.996L176.54 134.756ZM207.391 104.25L208.613 105.834L208.616 105.832L207.391 104.25ZM209.854 53.7983L211.4 55.068L209.854 53.7983ZM282.484 5.81266L283.043 7.73307L282.484 5.81266ZM369.251 7.43394L368.621 9.33218L369.251 7.43394ZM440.075 58.1001L438.484 59.3119L438.486 59.3151L440.075 58.1001ZM469.95 135.362L468.393 136.617L472.506 141.721L471.943 135.191L469.95 135.362ZM344.916 66.0104L345.151 64.0243L344.916 66.0104ZM476.438 36.518L477.115 34.6359L470.985 32.4325L474.822 37.6962L476.438 36.518ZM542.73 85.1734L541.139 86.3856L541.139 86.386L542.73 85.1734ZM510.214 116.342L508.244 116.683L510.214 116.342ZM505.257 203.01L503.338 202.446L502.914 203.891L504.185 204.698L505.257 203.01ZM556.927 244.573L555.508 245.982L557.451 247.94L558.708 245.483L556.927 244.573ZM572.795 162.785L570.803 162.963L572.795 162.785ZM615.303 176.513L615.939 174.617L613.276 173.723L613.303 176.532L615.303 176.513ZM684.763 226.309L686.353 225.095L684.763 226.309ZM587.122 277.587L585.421 276.534L584.696 277.706L585.532 278.801L587.122 277.587ZM598.959 293.086L600.549 291.873L598.959 293.086ZM610.954 308.792L609.364 310.006L610.217 311.122L611.556 310.699L610.954 308.792ZM714.822 306.82L714.293 308.748L716.996 309.49L716.818 306.693L714.822 306.82ZM305.305 521.899L303.716 523.113L305.305 521.899ZM512.276 548.859L513.506 550.436L512.276 548.859ZM331.99 312.797L333.22 314.374L331.99 312.797ZM634.422 346.751L633.971 344.802L631.335 345.412L632.691 347.753L634.422 346.751ZM660.697 407.672L658.78 408.243L659.3 409.987L661.085 409.634L660.697 407.672ZM716.839 351.678L716.159 353.559L716.839 351.678ZM783.67 400.654L782.083 401.87L782.084 401.872L783.67 400.654ZM813.597 477.985L812.035 479.233L816.146 484.379L815.59 477.816L813.597 477.985ZM661.45 407.523L661.385 405.524L661.221 405.529L661.061 405.561L661.45 407.523ZM680.362 723.539L679.127 721.966L679.125 721.967L680.362 723.539ZM643.33 745.951L642.512 744.126L636.443 746.846L643.006 747.925L643.33 745.951ZM751.857 598.841L749.876 598.565L751.857 598.841ZM717.17 459.06L717.85 457.179L711.748 454.975L715.55 460.232L717.17 459.06ZM783.567 507.852L781.976 509.065L781.979 509.068L783.567 507.852ZM814.112 589.917L816.109 589.796L814.112 589.917ZM793.657 675.121L795.38 676.136L793.657 675.121ZM729.292 733.929L728.439 732.119L729.292 733.929ZM306.238 279.046L307.465 280.625L307.472 280.62L306.238 279.046ZM239.715 379.263L238.592 380.918L240.915 382.496L241.646 379.784L239.715 379.263ZM384.238 242.936L383.838 240.976L384.238 242.936ZM469.997 245.595L469.476 247.526L472.171 248.253L471.993 245.467L469.997 245.595ZM439.893 165.338L438.303 166.553L438.306 166.557L439.893 165.338ZM341.917 108.581L341.66 110.564L341.917 108.581ZM232.914 138.44L231.684 136.863L232.914 138.44ZM176.735 237.424L178.719 237.676L176.735 237.424ZM180.671 295.456L182.603 294.938L180.671 295.456ZM206.289 347.55L207.882 346.34L207.878 346.335L206.289 347.55ZM545.169 719.815L545.428 717.831L545.169 719.815ZM654.257 690.07L655.485 691.649L655.488 691.646L654.257 690.07ZM447.181 662.973L448.771 661.759L448.766 661.753L447.181 662.973ZM425.086 621.989L425.062 619.99L422.289 620.023L423.196 622.643L425.086 621.989ZM611.474 430.849L612.115 428.954L609.466 428.058L609.474 430.855L611.474 430.849ZM680.837 480.831L679.244 482.041L679.247 482.045L680.837 480.831ZM710.405 591.007L708.421 590.755L710.405 591.007ZM368.507 660.944L369.698 662.551L369.719 662.535L369.74 662.519L368.507 660.944ZM260.511 688.386L260.229 690.366L260.511 688.386ZM387.692 642.815L389.194 644.136L390.026 643.19L389.532 642.031L387.692 642.815ZM379.5 617.909L381.446 617.448L381.16 616.239L379.949 615.96L379.5 617.909ZM232.16 424.986L234.159 425.05L234.199 423.809L233.105 423.223L232.16 424.986ZM210.444 410.732L211.685 409.164L210.689 408.375L209.551 408.942L210.444 410.732ZM188.168 424.814L186.934 423.24L186.917 423.253L186.901 423.267L188.168 424.814ZM134.502 523.393L132.515 523.164L134.502 523.393ZM164.258 631.808L162.669 633.022L164.258 631.808ZM506.631 775.704L505.418 774.114L505.411 774.119L505.404 774.125L506.631 775.704ZM299.593 748.797L298.004 750.013L298.005 750.014L299.593 748.797ZM290 734.393L289.884 732.396L286.652 732.584L288.266 735.39L290 734.393ZM394.492 694.952L395.723 696.529L395.729 696.524L395.735 696.519L394.492 694.952ZM408.943 681.827L410.692 680.856L409.379 678.491L407.503 680.439L408.943 681.827ZM413.774 689.002L415.367 687.793L415.349 687.77L415.331 687.747L413.774 689.002ZM524.141 759.21L525.656 760.516L527.863 757.957L524.557 757.253L524.141 759.21ZM162.46 391.139L163.688 392.718L163.696 392.712L163.704 392.705L162.46 391.139ZM98.1417 483.183L96.7253 484.595L99.0401 486.917L100.045 483.797L98.1417 483.183ZM178.483 380.072L179.507 381.79L181.755 380.449L179.871 378.632L178.483 380.072ZM172.838 373.531L174.464 372.367L174.445 372.341L174.425 372.315L172.838 373.531ZM134.088 247.495L136.084 247.607L136.276 244.167L133.194 245.706L134.088 247.495ZM113.379 260.794L114.608 262.372L114.621 262.362L114.634 262.351L113.379 260.794ZM61.0679 418.016L59.1367 418.536L61.0679 418.016ZM86.7836 470.155L88.3754 468.944L88.3709 468.938L86.7836 470.155ZM127.005 792.463L127.288 790.483H127.288L127.005 792.463ZM235.001 765.021L236.192 766.627L236.209 766.614L236.226 766.601L235.001 765.021ZM30.7524 735.884L32.3419 734.67L30.7524 735.884ZM0.995705 627.469L2.98249 627.699L0.995705 627.469ZM54.662 528.89L53.4443 527.304L53.4191 527.323L53.3946 527.343L54.662 528.89ZM72.8531 517.117L74.2942 515.73L73.2413 514.636L71.9047 515.356L72.8531 517.117ZM89.3788 531.807L91.3753 531.925L91.4383 530.858L90.5869 530.213L89.3788 531.807ZM128.455 659.995L126.866 661.209L128.455 659.995ZM241.276 730.696L243.146 729.986L242.754 728.954L241.671 728.736L241.276 730.696ZM250.939 750.298L252.418 751.645L253.434 750.53L252.641 749.247L250.939 750.298ZM178.109 135.996C187.022 124.722 197.266 114.593 208.613 105.834L206.169 102.667C194.563 111.626 184.086 121.986 174.971 133.515L178.109 135.996ZM208.309 52.5286C189.16 75.8345 177.398 104.42 174.549 134.567L178.531 134.944C181.305 105.587 192.759 77.7552 211.4 55.068L208.309 52.5286ZM281.926 3.89225C253.109 12.2744 227.458 29.2224 208.309 52.5286L211.4 55.068C230.04 32.381 255.004 15.8888 283.043 7.73307L281.926 3.89225ZM369.881 5.5357C341.391 -3.91722 310.743 -4.48992 281.926 3.89225L283.043 7.73307C311.082 -0.42262 340.9 0.134511 368.621 9.33218L369.881 5.5357ZM441.666 56.8883C423.383 32.883 398.371 14.9885 369.881 5.5357L368.621 9.33218C396.343 18.5299 420.686 35.9436 438.484 59.3119L441.666 56.8883ZM471.943 135.191C469.485 106.699 458.976 79.5185 441.664 56.885L438.486 59.3151C455.335 81.3418 465.565 107.798 467.957 135.534L471.943 135.191ZM344.681 67.9965C393.177 73.7431 437.555 98.3553 468.393 136.617L471.507 134.107C440.017 95.0365 394.694 69.8948 345.151 64.0243L344.681 67.9965ZM208.616 105.832C247.377 75.8198 296.184 62.2499 344.681 67.9965L345.151 64.0243C295.609 58.1537 245.754 72.0175 206.167 102.669L208.616 105.832ZM475.762 38.4001C501.665 47.7106 524.364 64.3701 541.139 86.3856L544.321 83.9613C527.081 61.3356 503.748 44.2088 477.115 34.6359L475.762 38.4001ZM512.185 116.001C507.132 86.8115 495.45 59.2016 478.054 35.3398L474.822 37.6962C491.855 61.06 503.295 88.0968 508.244 116.683L512.185 116.001ZM507.176 203.573C515.523 175.166 517.238 145.19 512.185 116.001L508.244 116.683C513.192 145.27 511.513 174.626 503.338 202.446L507.176 203.573ZM558.346 243.163C542.602 227.305 525.155 213.271 506.329 201.321L504.185 204.698C522.759 216.488 539.973 230.335 555.508 245.982L558.346 243.163ZM570.803 162.963C573.284 190.82 567.852 218.814 555.146 243.662L558.708 245.483C571.757 219.963 577.335 191.214 574.787 162.608L570.803 162.963ZM541.139 86.386C558.031 108.541 568.321 135.105 570.803 162.963L574.787 162.608C572.239 134.001 561.671 106.719 544.32 83.9608L541.139 86.386ZM614.667 178.409C641.83 187.523 665.685 204.623 683.174 227.523L686.353 225.095C668.382 201.564 643.864 183.986 615.939 174.617L614.667 178.409ZM588.822 278.639C607.764 248.03 617.645 212.588 617.303 176.494L613.303 176.532C613.638 211.872 603.963 246.57 585.421 276.534L588.822 278.639ZM600.549 291.873L588.711 276.373L585.532 278.801L597.37 294.3L600.549 291.873ZM612.543 307.578L600.549 291.873L597.37 294.3L609.364 310.006L612.543 307.578ZM715.351 304.891C680.879 295.431 644.448 296.123 610.352 306.885L611.556 310.699C644.918 300.169 680.563 299.493 714.293 308.748L715.351 304.891ZM683.174 227.523C700.663 250.422 710.989 278.078 712.826 306.947L716.818 306.693C714.931 277.038 704.323 248.625 686.353 225.095L683.174 227.523ZM303.716 523.113C354.173 589.18 448.102 601.42 513.506 550.436L511.047 547.281C447.406 596.892 356.007 584.992 306.895 520.685L303.716 523.113ZM330.76 311.22C265.369 362.194 253.268 457.059 303.716 523.113L306.895 520.685C257.773 456.367 269.566 363.994 333.22 314.374L330.76 311.22ZM540.55 338.543C490.094 272.476 396.164 260.236 330.76 311.22L333.22 314.374C396.861 264.764 488.259 276.664 537.371 340.97L540.55 338.543ZM513.506 550.436C578.897 499.461 590.998 404.597 540.55 338.543L537.371 340.97C586.493 405.289 574.7 497.661 511.047 547.281L513.506 550.436ZM632.691 347.753C643.722 366.804 652.479 387.109 658.78 408.243L662.614 407.1C656.223 385.666 647.341 365.072 636.153 345.749L632.691 347.753ZM717.518 349.797C690.711 340.115 661.722 338.382 633.971 344.802L634.873 348.699C661.872 342.453 690.077 344.139 716.159 353.559L717.518 349.797ZM785.257 399.437C767.828 376.704 744.325 359.479 717.518 349.797L716.159 353.559C742.242 362.979 765.117 379.741 782.083 401.87L785.257 399.437ZM815.59 477.816C813.174 449.282 802.64 422.061 785.256 399.435L782.084 401.872C798.999 423.888 809.252 450.38 811.605 478.153L815.59 477.816ZM744.883 426.495C771.001 438.59 793.987 456.642 812.035 479.233L815.16 476.736C796.727 453.663 773.247 435.222 746.564 422.865L744.883 426.495ZM661.514 409.522C690.229 408.59 718.766 414.4 744.883 426.495L746.564 422.865C719.881 410.508 690.724 404.572 661.385 405.524L661.514 409.522ZM661.085 409.634L661.838 409.485L661.061 405.561L660.309 405.71L661.085 409.634ZM679.125 721.967C667.861 730.835 655.565 738.277 642.512 744.126L644.148 747.776C657.5 741.792 670.078 734.18 681.599 725.11L679.125 721.967ZM749.876 598.565C743.075 647.434 717.694 691.697 679.127 721.966L681.597 725.112C720.984 694.2 746.895 649.004 753.838 599.117L749.876 598.565ZM715.55 460.232C744.362 500.075 756.677 549.696 749.876 598.565L753.838 599.117C760.781 549.229 748.211 498.57 718.791 457.888L715.55 460.232ZM785.157 506.64C767.878 483.98 744.516 466.811 717.85 457.179L716.491 460.941C742.43 470.31 765.161 487.013 781.976 509.065L785.157 506.64ZM816.109 589.796C814.285 559.568 803.501 530.592 785.155 506.636L781.979 509.068C799.838 532.389 810.34 560.601 812.116 590.037L816.109 589.796ZM795.38 676.136C810.71 650.109 817.932 620.024 816.109 589.796L812.116 590.037C813.892 619.473 806.859 648.766 791.934 674.106L795.38 676.136ZM730.144 735.738C757.32 722.933 780.05 702.165 795.38 676.136L791.934 674.106C777.009 699.446 754.884 719.659 728.439 732.119L730.144 735.738ZM643.006 747.925C672.605 752.789 702.968 748.542 730.144 735.738L728.439 732.119C701.995 744.579 672.453 748.711 643.654 743.978L643.006 747.925ZM305.012 277.466C272.249 302.9 248.638 338.473 237.784 378.743L241.646 379.784C252.275 340.35 275.394 305.522 307.465 280.625L305.012 277.466ZM383.838 240.976C355.126 246.841 328.146 259.332 305.005 277.471L307.472 280.62C330.127 262.862 356.537 250.636 384.638 244.896L383.838 240.976ZM470.517 243.664C442.216 236.031 412.55 235.112 383.838 240.976L384.638 244.896C412.74 239.155 441.775 240.055 469.476 247.526L470.517 243.664ZM438.306 166.557C455.814 189.351 466.158 216.926 468.001 245.723L471.993 245.467C470.099 215.882 459.472 187.546 441.479 164.12L438.306 166.557ZM341.66 110.564C379.943 115.54 414.708 135.677 438.303 166.553L441.482 164.124C417.244 132.407 381.523 111.711 342.175 106.598L341.66 110.564ZM234.144 140.017C264.702 116.182 303.376 105.589 341.66 110.564L342.175 106.598C302.827 101.484 263.081 112.372 231.684 136.863L234.144 140.017ZM178.719 237.676C183.646 198.981 203.585 163.852 234.144 140.017L231.684 136.863C200.287 161.352 179.81 197.435 174.751 237.171L178.719 237.676ZM182.603 294.938C177.599 276.294 176.279 256.836 178.719 237.676L174.751 237.171C172.246 256.847 173.601 276.828 178.739 295.975L182.603 294.938ZM207.878 346.335C196.195 331.047 187.606 313.582 182.603 294.938L178.739 295.975C183.878 315.122 192.699 333.059 204.7 348.764L207.878 346.335ZM240.839 377.609C228.249 369.06 217.118 358.5 207.882 346.34L204.697 348.759C214.194 361.264 225.642 372.125 238.592 380.918L240.839 377.609ZM544.909 721.798C584.269 726.948 624.04 716.102 655.485 691.649L653.029 688.491C622.424 712.292 583.724 722.842 545.428 717.831L544.909 721.798ZM445.592 664.187C469.83 695.924 505.55 716.647 544.909 721.798L545.428 717.831C507.133 712.82 472.367 692.656 448.771 661.759L445.592 664.187ZM423.196 622.643C428.382 637.629 435.947 651.662 445.597 664.194L448.766 661.753C439.381 649.565 432.021 635.914 426.976 621.335L423.196 622.643ZM555.786 563.779C521.247 599.198 474.264 619.398 425.062 619.99L425.11 623.989C475.38 623.385 523.374 602.747 558.65 566.571L555.786 563.779ZM609.474 430.855C609.624 480.585 590.326 528.359 555.786 563.779L558.65 566.571C593.925 530.397 613.627 481.615 613.474 430.843L609.474 430.855ZM682.429 479.621C664.511 456.037 640.028 438.393 612.115 428.954L610.834 432.743C637.985 441.925 661.807 459.089 679.244 482.041L682.429 479.621ZM712.389 591.259C717.439 551.507 706.664 511.353 682.426 479.617L679.247 482.045C702.844 512.941 713.338 552.042 708.421 590.755L712.389 591.259ZM655.488 691.646C686.876 667.119 707.339 631.012 712.389 591.259L708.421 590.755C703.503 629.469 683.576 664.621 653.025 688.494L655.488 691.646ZM367.315 659.338C336.663 682.063 298.434 691.776 260.794 686.406L260.229 690.366C298.916 695.885 338.203 685.901 369.698 662.551L367.315 659.338ZM386.19 641.495C380.444 648.031 374.111 654.015 367.273 659.37L369.74 662.519C376.773 657.011 383.285 650.857 389.194 644.136L386.19 641.495ZM377.554 618.37C379.6 627.004 382.376 635.445 385.852 643.6L389.532 642.031C386.145 634.086 383.44 625.861 381.446 617.448L377.554 618.37ZM269.956 549.387C297.12 584.955 335.689 609.871 379.051 619.858L379.949 615.96C337.501 606.183 299.737 581.791 273.135 546.959L269.956 549.387ZM230.161 424.922C228.725 469.817 242.793 513.82 269.956 549.387L273.135 546.959C246.533 512.128 232.752 469.028 234.159 425.05L230.161 424.922ZM209.202 412.3C216.103 417.763 223.47 422.598 231.215 426.749L233.105 423.223C225.568 419.185 218.401 414.48 211.685 409.164L209.202 412.3ZM189.402 426.388C196.234 421.033 203.582 416.387 211.336 412.522L209.551 408.942C201.556 412.928 193.978 417.718 186.934 423.24L189.402 426.388ZM136.488 523.623C140.897 485.458 159.901 450.553 189.435 426.361L186.901 423.267C156.557 448.122 137.042 483.974 132.515 523.164L136.488 523.623ZM165.848 630.594C142.619 600.178 132.08 561.787 136.488 523.623L132.515 523.164C127.988 562.353 138.808 601.779 162.669 633.022L165.848 630.594ZM260.794 686.406C223.153 681.037 189.077 661.009 165.848 630.594L162.669 633.022C186.53 664.265 221.542 684.847 260.229 690.366L260.794 686.406ZM397.35 807.466C436.691 812.579 476.432 801.723 507.859 777.283L505.404 774.125C474.816 797.912 436.144 808.474 397.865 803.499L397.35 807.466ZM298.005 750.014C322.284 781.69 358.009 802.353 397.35 807.466L397.865 803.499C359.587 798.525 324.816 778.418 301.18 747.581L298.005 750.014ZM288.266 735.39C291.19 740.475 294.443 745.36 298.004 750.013L301.181 747.582C297.726 743.068 294.57 738.33 291.733 733.396L288.266 735.39ZM393.262 693.375C363.482 716.615 327.446 730.216 289.884 732.396L290.115 736.39C328.493 734.162 365.305 720.266 395.723 696.529L393.262 693.375ZM407.503 680.439C403.042 685.07 398.28 689.395 393.249 693.385L395.735 696.519C400.905 692.418 405.799 687.973 410.384 683.214L407.503 680.439ZM415.331 687.747C413.592 685.589 412.04 683.284 410.692 680.856L407.195 682.797C408.653 685.425 410.333 687.921 412.217 690.258L415.331 687.747ZM524.557 757.253C481.125 748.011 442.393 723.375 415.367 687.793L412.181 690.212C439.784 726.553 479.348 751.723 523.725 761.166L524.557 757.253ZM507.845 777.294C514.34 772.337 520.308 766.715 525.656 760.516L522.627 757.903C517.46 763.893 511.693 769.326 505.418 774.114L507.845 777.294ZM161.232 389.561C130.782 413.24 108.128 445.661 96.2381 482.57L100.045 483.797C111.69 447.648 133.875 415.901 163.688 392.718L161.232 389.561ZM177.459 378.354C171.804 381.725 166.377 385.473 161.216 389.574L163.704 392.705C168.726 388.716 174.005 385.069 179.507 381.79L177.459 378.354ZM171.211 374.694C172.962 377.143 174.931 379.424 177.094 381.511L179.871 378.632C177.884 376.715 176.074 374.618 174.464 372.367L171.211 374.694ZM132.091 247.384C129.534 293.215 143.437 338.441 171.25 374.747L174.425 372.315C147.196 336.771 133.58 292.487 136.084 247.607L132.091 247.384ZM114.634 262.351C120.935 257.273 127.756 252.893 134.981 249.285L133.194 245.706C125.712 249.443 118.648 253.979 112.124 259.237L114.634 262.351ZM77.2038 305.671C86.733 288.892 99.4439 274.178 114.608 262.372L112.15 259.216C96.5704 271.346 83.5132 286.461 73.7256 303.695L77.2038 305.671ZM59.0767 360.152C61.5143 340.963 67.6745 322.449 77.2038 305.671L73.7256 303.695C63.9379 320.929 57.6118 339.943 55.1085 359.648L59.0767 360.152ZM62.9991 417.495C57.972 398.828 56.639 379.342 59.0767 360.152L55.1085 359.648C52.6053 379.354 53.9741 399.365 59.1367 418.536L62.9991 417.495ZM88.3709 468.938C76.6483 453.644 68.0262 436.163 62.9991 417.495L59.1367 418.536C64.2993 437.706 73.1545 455.661 85.1962 471.371L88.3709 468.938ZM99.5582 481.771C95.5518 477.752 91.8159 473.467 88.3754 468.944L85.1917 471.366C88.7399 476.03 92.593 480.45 96.7253 484.595L99.5582 481.771ZM126.723 794.443C165.41 799.961 204.697 789.977 236.192 766.627L233.809 763.414C203.157 786.139 164.928 795.852 127.288 790.483L126.723 794.443ZM29.163 737.098C53.024 768.341 88.0359 788.924 126.723 794.443L127.288 790.483C89.6467 785.113 55.5707 765.085 32.3419 734.67L29.163 737.098ZM-0.991085 627.24C-5.51778 666.429 5.30239 705.856 29.163 737.098L32.3419 734.67C9.11253 704.254 -1.42584 665.863 2.98249 627.699L-0.991085 627.24ZM53.3946 527.343C23.0514 552.198 3.53563 588.051 -0.991085 627.24L2.98249 627.699C7.39081 589.535 26.3952 554.63 55.9293 530.438L53.3946 527.343ZM71.9047 515.356C65.4456 518.835 59.2725 522.831 53.4443 527.304L55.8797 530.477C61.5383 526.134 67.5314 522.255 73.8016 518.878L71.9047 515.356ZM90.5869 530.213C84.7922 525.82 79.3447 520.978 74.2942 515.73L71.4121 518.504C76.6066 523.901 82.2097 528.882 88.1706 533.401L90.5869 530.213ZM130.045 658.781C102.416 622.604 88.6783 577.543 91.3753 531.925L87.3822 531.689C84.629 578.26 98.6526 624.267 126.866 661.209L130.045 658.781ZM241.671 728.736C197.325 719.804 157.674 694.957 130.045 658.781L126.866 661.209C155.08 698.151 195.578 723.532 240.881 732.657L241.671 728.736ZM252.641 749.247C248.874 743.148 245.695 736.699 243.146 729.986L239.406 731.406C242.045 738.356 245.337 745.034 249.238 751.349L252.641 749.247ZM236.226 766.601C242.038 762.093 247.455 757.09 252.418 751.645L249.461 748.951C244.653 754.226 239.405 759.073 233.775 763.44L236.226 766.601Z" fill="white" mask="url(#path-1-inside-1)"/>
</g>
</svg>
