<svg width="1005" height="878" viewBox="0 0 1005 878" fill="none" xmlns="http://www.w3.org/2000/svg">
<mask id="path-1-inside-1" fill="white">
<path fill-rule="evenodd" clip-rule="evenodd" d="M255.723 11.5456C241.572 22.4693 228.796 35.1013 217.682 49.1601C221.149 12.4744 235.462 -22.3083 258.761 -50.6642C282.059 -79.02 313.264 -99.6367 348.317 -109.833C383.37 -120.029 420.648 -119.332 455.304 -107.834C489.96 -96.3351 520.389 -74.5667 542.633 -45.3599C563.694 -17.8258 576.481 15.2422 579.471 49.9083C541.044 2.23067 485.741 -28.4438 425.298 -35.6061C364.854 -42.7683 304.027 -25.8548 255.723 11.5456ZM669.212 -11.9769C648.242 -39.4992 619.861 -60.3293 587.472 -71.9714C608.698 -42.8556 622.953 -9.1646 629.119 26.4556C635.285 62.0757 633.193 98.6551 623.007 133.321C646.064 147.957 667.433 165.146 686.718 184.57C702.597 153.517 709.384 118.534 706.284 83.722C703.183 48.9104 690.323 15.7134 669.212 -11.9769ZM844.346 162.049C822.484 133.424 792.661 112.044 758.698 100.648C759.116 144.689 747.059 187.932 723.949 225.278L738.545 244.389L753.335 263.755C794.925 250.628 839.361 249.784 881.409 261.323C879.113 225.242 866.208 190.675 844.346 162.049ZM631.661 559.769C552.102 621.788 437.843 606.905 376.457 526.526C315.07 446.148 329.801 330.713 409.36 268.694C488.919 206.674 603.178 221.558 664.565 301.936C725.952 382.314 711.22 497.75 631.661 559.769ZM814.671 385.679C806.847 359.434 795.971 334.219 782.272 310.56C816.027 302.751 851.289 304.86 883.897 316.636C916.504 328.413 945.098 349.367 966.303 377.025C987.449 404.548 1000.26 437.663 1003.2 472.378C980.714 444.225 952.066 421.727 919.513 406.651C886.961 391.576 851.39 384.334 815.599 385.495L814.671 385.679ZM793.257 802.794C809.536 795.498 824.871 786.217 838.919 775.158C886.98 737.439 918.602 682.285 927.075 621.399C935.549 560.514 920.207 498.689 884.305 449.043C916.737 460.757 945.155 481.641 966.175 509.206C988.497 538.353 1001.62 573.611 1003.84 610.396C1006.06 647.18 997.27 683.787 978.617 715.457C959.964 747.127 932.31 772.393 899.252 787.969C866.193 803.545 829.26 808.711 793.257 802.794ZM295.581 350.65C308.825 301.511 337.636 258.107 377.607 227.077C405.842 204.945 438.758 189.707 473.785 182.552C508.812 175.397 545.002 176.519 579.529 185.831C577.226 149.837 564.296 115.367 542.409 86.8705C512.919 48.2802 469.463 23.106 421.601 16.886C373.739 10.6659 325.392 23.9094 287.195 53.7032C248.998 83.497 224.08 127.4 217.923 175.755C214.875 199.698 216.524 224.013 222.777 247.312C229.029 270.611 239.763 292.438 254.365 311.546C265.915 326.752 279.835 339.959 295.581 350.65ZM806.73 733.889C768.475 763.639 720.095 776.83 672.22 770.566C624.344 764.301 580.887 739.092 551.396 700.478C539.661 685.238 530.459 668.169 524.152 649.943C585.478 649.206 644.034 624.028 687.077 579.888C730.119 535.748 754.164 476.219 753.977 414.257C787.925 425.737 817.707 447.197 839.504 475.887C868.995 514.502 882.108 563.364 875.963 611.74C869.818 660.117 844.917 704.05 806.73 733.889ZM321.223 731.813C368.281 738.526 416.072 726.382 454.387 697.976C462.938 691.278 470.858 683.795 478.043 675.622C473.812 665.696 470.433 655.421 467.942 644.911C415.038 632.726 367.977 602.326 334.829 558.924C301.682 515.521 284.512 461.82 286.265 407.028C276.843 401.979 267.883 396.097 259.488 389.452C249.778 394.293 240.576 400.11 232.021 406.816C195.105 437.054 171.356 480.678 165.848 528.369C160.339 576.059 173.507 624.035 202.539 662.049C231.571 700.062 274.165 725.1 321.223 731.813ZM624.701 839.479C586.467 869.213 538.124 882.417 490.27 876.198C442.415 869.979 398.953 844.844 369.413 806.302C365.087 800.651 361.136 794.718 357.584 788.541C404.403 785.824 449.315 768.871 486.428 739.908C492.717 734.92 498.67 729.513 504.247 723.724C505.977 726.841 507.97 729.801 510.203 732.572C543.884 776.915 592.155 807.621 646.291 819.141C639.809 826.656 632.574 833.471 624.701 839.479ZM121.014 478.788C135.523 433.746 163.167 394.185 200.321 365.294C206.599 360.306 213.2 355.747 220.078 351.646C217.519 349.178 215.189 346.478 213.117 343.581C179.183 299.284 162.216 244.1 165.337 188.174C156.269 192.701 147.709 198.199 139.802 204.571C120.848 219.329 104.961 237.719 93.0519 258.688C81.1426 279.658 73.4444 302.795 70.3983 326.774C67.3521 350.754 69.0178 375.105 75.3 398.433C81.5822 421.761 92.3573 443.608 107.009 462.723C111.317 468.388 115.996 473.755 121.014 478.788ZM289.767 826.307C251.452 854.713 203.661 866.857 156.603 860.144C109.546 853.431 66.9513 828.394 37.9192 790.38C8.88715 752.366 -4.28091 704.39 1.22775 656.7C6.73641 609.009 30.485 565.386 67.4008 535.147C74.4827 529.712 81.9835 524.857 89.8314 520.63C96.1477 527.193 102.961 533.249 110.208 538.743C106.848 595.58 123.963 651.725 158.392 696.805C192.82 741.884 242.234 772.851 297.505 783.983C300.703 792.406 304.693 800.5 309.42 808.153C303.396 814.762 296.821 820.835 289.767 826.307Z"/>
</mask>
<path d="M217.682 49.1601L215.691 48.9719L215.054 55.7089L219.251 50.4004L217.682 49.1601ZM255.723 11.5456L256.945 13.1288L256.948 13.127L255.723 11.5456ZM258.761 -50.6642L257.215 -51.9338L258.761 -50.6642ZM348.317 -109.833L348.875 -107.912L348.317 -109.833ZM455.304 -107.834L455.934 -109.732L455.304 -107.834ZM542.633 -45.3599L541.042 -44.1481L541.045 -44.1448L542.633 -45.3599ZM579.471 49.9083L577.913 51.1633L582.026 56.2666L581.463 49.7364L579.471 49.9083ZM587.472 -71.9714L588.148 -73.8535L582.018 -76.0568L585.855 -70.7932L587.472 -71.9714ZM669.212 -11.9769L667.621 -10.7647L667.622 -10.7643L669.212 -11.9769ZM629.119 26.4556L631.09 26.1145L629.119 26.4556ZM623.007 133.321L621.088 132.757L620.663 134.202L621.935 135.009L623.007 133.321ZM686.718 184.57L685.298 185.979L687.242 187.937L688.498 185.48L686.718 184.57ZM758.698 100.648L759.334 98.7522L756.672 97.8588L756.698 100.667L758.698 100.648ZM844.346 162.049L842.756 163.263L844.346 162.049ZM723.949 225.278L722.248 224.225L721.524 225.397L722.36 226.491L723.949 225.278ZM738.545 244.389L736.956 245.603L738.545 244.389ZM753.335 263.755L751.746 264.969L752.598 266.085L753.937 265.662L753.335 263.755ZM881.409 261.323L880.88 263.252L883.583 263.994L883.405 261.196L881.409 261.323ZM376.457 526.526L378.046 525.313L376.457 526.526ZM631.661 559.769L630.432 558.191L631.661 559.769ZM409.36 268.694L410.59 270.271L409.36 268.694ZM664.565 301.936L662.975 303.15L664.565 301.936ZM782.272 310.56L781.822 308.612L779.186 309.222L780.542 311.563L782.272 310.56ZM814.671 385.679L812.754 386.251L813.274 387.994L815.059 387.641L814.671 385.679ZM883.897 316.636L883.217 318.517L883.897 316.636ZM966.303 377.025L964.716 378.242L964.717 378.244L966.303 377.025ZM1003.2 472.378L1001.64 473.626L1005.75 478.773L1005.2 472.209L1003.2 472.378ZM919.513 406.651L918.673 408.466L919.513 406.651ZM815.599 385.495L815.534 383.496L815.371 383.502L815.211 383.534L815.599 385.495ZM838.919 775.158L837.684 773.585L837.682 773.587L838.919 775.158ZM793.257 802.794L792.439 800.969L786.369 803.689L792.932 804.767L793.257 802.794ZM927.075 621.399L925.094 621.124L927.075 621.399ZM884.305 449.043L884.985 447.161L878.883 444.957L882.685 450.214L884.305 449.043ZM966.175 509.206L964.585 510.419L964.587 510.422L966.175 509.206ZM1003.84 610.396L1005.84 610.275L1003.84 610.396ZM377.607 227.077L378.834 228.657L378.841 228.651L377.607 227.077ZM295.581 350.65L294.458 352.305L296.781 353.882L297.512 351.171L295.581 350.65ZM473.785 182.552L474.185 184.512L473.785 182.552ZM579.529 185.831L579.008 187.762L581.703 188.489L581.525 185.703L579.529 185.831ZM542.409 86.8705L540.82 88.0849L540.823 88.0888L542.409 86.8705ZM421.601 16.886L421.343 18.8693L421.601 16.886ZM287.195 53.7032L285.965 52.1262L287.195 53.7032ZM217.923 175.755L219.907 176.008L217.923 175.755ZM254.365 311.546L255.958 310.336L255.954 310.331L254.365 311.546ZM672.22 770.566L672.479 768.583L672.22 770.566ZM806.73 733.889L807.958 735.468L807.962 735.465L806.73 733.889ZM551.396 700.478L552.986 699.264L552.981 699.258L551.396 700.478ZM524.152 649.943L524.128 647.943L521.355 647.976L522.262 650.597L524.152 649.943ZM687.077 579.888L688.509 581.284L687.077 579.888ZM753.977 414.257L754.618 412.363L751.969 411.467L751.977 414.263L753.977 414.257ZM839.504 475.887L837.912 477.097L837.915 477.101L839.504 475.887ZM454.387 697.976L455.578 699.582L455.599 699.566L455.62 699.55L454.387 697.976ZM321.223 731.813L321.506 729.833L321.223 731.813ZM478.043 675.622L479.545 676.942L480.377 675.996L479.883 674.838L478.043 675.622ZM467.942 644.911L469.888 644.45L469.602 643.241L468.391 642.962L467.942 644.911ZM334.829 558.924L333.24 560.138L334.829 558.924ZM286.265 407.028L288.264 407.092L288.303 405.851L287.21 405.265L286.265 407.028ZM259.488 389.452L260.729 387.884L259.733 387.095L258.595 387.662L259.488 389.452ZM232.021 406.816L230.787 405.242L230.77 405.255L230.753 405.269L232.021 406.816ZM165.848 528.369L167.834 528.598L165.848 528.369ZM202.539 662.049L204.128 660.835L202.539 662.049ZM624.701 839.479L623.488 837.889L623.48 837.895L623.473 837.901L624.701 839.479ZM369.413 806.302L367.824 807.518L367.825 807.519L369.413 806.302ZM357.584 788.541L357.468 786.544L354.236 786.732L355.85 789.538L357.584 788.541ZM486.428 739.908L487.658 741.485L487.665 741.48L487.671 741.475L486.428 739.908ZM504.247 723.724L505.996 722.754L504.683 720.389L502.807 722.337L504.247 723.724ZM510.203 732.572L511.796 731.363L511.779 731.34L511.761 731.317L510.203 732.572ZM646.291 819.141L647.806 820.447L650.013 817.888L646.708 817.185L646.291 819.141ZM200.321 365.294L201.549 366.872L201.557 366.866L201.565 366.86L200.321 365.294ZM121.014 478.788L119.597 480.2L121.912 482.522L122.917 479.401L121.014 478.788ZM220.078 351.646L221.102 353.364L223.35 352.024L221.467 350.207L220.078 351.646ZM213.117 343.581L214.744 342.418L214.725 342.391L214.705 342.365L213.117 343.581ZM165.337 188.174L167.334 188.285L167.526 184.845L164.443 186.384L165.337 188.174ZM139.802 204.571L141.031 206.149L141.044 206.139L141.057 206.128L139.802 204.571ZM93.0519 258.688L94.791 259.676L93.0519 258.688ZM70.3983 326.774L68.4142 326.522L70.3983 326.774ZM75.3 398.433L77.2312 397.913L75.3 398.433ZM107.009 462.723L108.6 461.513L108.596 461.507L107.009 462.723ZM156.603 860.144L156.886 858.164L156.603 860.144ZM289.767 826.307L290.958 827.913L290.975 827.9L290.993 827.887L289.767 826.307ZM37.9192 790.38L36.3297 791.594L37.9192 790.38ZM1.22775 656.7L-0.759039 656.47H-0.759039L1.22775 656.7ZM67.4008 535.147L66.1831 533.561L66.158 533.58L66.1335 533.6L67.4008 535.147ZM89.8314 520.63L91.2724 519.243L90.2196 518.149L88.8829 518.869L89.8314 520.63ZM110.208 538.743L112.205 538.861L112.268 537.795L111.416 537.149L110.208 538.743ZM158.392 696.805L156.802 698.019L158.392 696.805ZM297.505 783.983L299.374 783.273L298.982 782.241L297.9 782.023L297.505 783.983ZM309.42 808.153L310.898 809.5L311.915 808.385L311.122 807.102L309.42 808.153ZM219.251 50.4004C230.264 36.4693 242.923 23.9525 256.945 13.1288L254.501 9.96244C240.22 20.986 227.328 33.7333 216.113 47.9197L219.251 50.4004ZM257.215 -51.9338C233.663 -23.2686 219.195 11.8911 215.691 48.9719L219.673 49.3482C223.103 13.0578 237.262 -21.348 260.306 -49.3945L257.215 -51.9338ZM347.758 -111.753C312.316 -101.444 280.768 -80.5993 257.215 -51.9338L260.306 -49.3945C283.35 -77.4408 314.212 -97.8295 348.875 -107.912L347.758 -111.753ZM455.934 -109.732C420.894 -121.358 383.2 -122.062 347.758 -111.753L348.875 -107.912C383.539 -117.995 420.403 -117.306 454.674 -105.935L455.934 -109.732ZM544.224 -46.5717C521.737 -76.097 490.974 -98.1058 455.934 -109.732L454.674 -105.935C488.946 -94.5644 519.04 -73.0364 541.042 -44.1481L544.224 -46.5717ZM581.463 49.7364C578.441 14.6928 565.515 -18.7375 544.222 -46.575L541.045 -44.1448C561.873 -16.9142 574.521 15.7917 577.478 50.0802L581.463 49.7364ZM425.062 -33.62C484.983 -26.5196 539.813 3.89006 577.913 51.1633L581.028 48.6532C542.275 0.571281 486.499 -30.3679 425.533 -37.5922L425.062 -33.62ZM256.948 13.127C304.839 -23.9536 365.142 -40.7203 425.062 -33.62L425.533 -37.5922C364.567 -44.8164 303.216 -27.7559 254.499 9.96426L256.948 13.127ZM586.795 -70.0892C618.82 -58.5784 646.883 -37.982 667.621 -10.7647L670.803 -13.189C649.6 -41.0164 620.903 -62.0802 588.148 -73.8535L586.795 -70.0892ZM631.09 26.1145C624.872 -9.80724 610.495 -43.7849 589.088 -73.1495L585.855 -70.7932C606.9 -41.9264 621.035 -8.52198 627.148 26.7967L631.09 26.1145ZM624.926 133.884C635.198 98.925 637.308 62.0361 631.09 26.1145L627.148 26.7967C633.262 62.1154 631.187 98.3851 621.088 132.757L624.926 133.884ZM688.137 183.161C668.748 163.632 647.262 146.348 624.079 131.632L621.935 135.009C644.866 149.565 666.119 166.661 685.298 185.979L688.137 183.161ZM704.291 83.8994C707.359 118.337 700.644 152.942 684.937 183.659L688.498 185.48C704.55 154.091 711.41 118.731 708.276 83.5446L704.291 83.8994ZM667.622 -10.7643C688.503 16.6246 701.224 49.4624 704.291 83.8994L708.276 83.5446C705.142 48.3584 692.144 14.8022 670.803 -13.1895L667.622 -10.7643ZM758.062 102.544C791.644 113.812 821.135 134.954 842.756 163.263L845.935 160.835C823.832 131.894 793.678 110.276 759.334 98.7522L758.062 102.544ZM725.65 226.33C748.959 188.662 761.119 145.047 760.698 100.629L756.698 100.667C757.112 144.331 745.158 187.202 722.248 224.225L725.65 226.33ZM740.135 243.175L725.539 224.064L722.36 226.491L736.956 245.603L740.135 243.175ZM754.925 262.541L740.135 243.175L736.956 245.603L751.746 264.969L754.925 262.541ZM881.939 259.394C839.519 247.754 794.69 248.605 752.733 261.848L753.937 265.662C795.16 252.651 839.203 251.815 880.88 263.252L881.939 259.394ZM842.756 163.263C864.377 191.573 877.142 225.762 879.414 261.45L883.405 261.196C881.084 224.722 868.038 189.776 845.935 160.835L842.756 163.263ZM374.867 527.74C436.926 608.999 552.451 624.052 632.891 561.346L630.432 558.191C551.754 619.523 438.761 604.811 378.046 525.313L374.867 527.74ZM408.13 267.116C327.703 329.812 312.818 446.494 374.867 527.74L378.046 525.313C317.322 445.802 331.9 331.613 410.59 270.271L408.13 267.116ZM666.154 300.722C604.095 219.464 488.57 204.41 408.13 267.116L410.59 270.271C489.267 208.939 602.261 223.651 662.975 303.15L666.154 300.722ZM632.891 561.346C713.319 498.65 728.204 381.968 666.154 300.722L662.975 303.15C723.699 382.66 709.122 496.85 630.432 558.191L632.891 561.346ZM780.542 311.563C794.162 335.085 804.975 360.156 812.754 386.251L816.588 385.108C808.718 358.713 797.781 333.353 784.003 309.558L780.542 311.563ZM884.576 314.755C851.606 302.848 815.952 300.716 781.822 308.612L782.723 312.509C816.103 304.787 850.972 306.871 883.217 318.517L884.576 314.755ZM967.89 375.808C946.453 347.848 917.546 326.663 884.576 314.755L883.217 318.517C915.463 330.163 943.742 350.885 964.716 378.242L967.89 375.808ZM1005.2 472.209C1002.23 437.114 989.269 403.635 967.889 375.807L964.717 378.244C985.629 405.462 998.304 438.212 1001.21 472.547L1005.2 472.209ZM918.673 408.466C950.943 423.411 979.344 445.715 1001.64 473.626L1004.77 471.13C982.084 442.736 953.189 420.043 920.354 404.836L918.673 408.466ZM815.664 387.494C851.143 386.343 886.403 393.521 918.673 408.466L920.354 404.836C887.518 389.63 851.638 382.325 815.534 383.496L815.664 387.494ZM815.059 387.641L815.987 387.457L815.211 383.534L814.283 383.717L815.059 387.641ZM837.682 773.587C823.762 784.544 808.568 793.74 792.439 800.969L794.075 804.619C810.504 797.256 825.98 787.89 840.156 776.73L837.682 773.587ZM925.094 621.124C916.692 681.5 885.335 736.188 837.684 773.585L840.154 776.731C888.624 738.691 920.512 683.07 929.056 621.675L925.094 621.124ZM882.685 450.214C918.283 499.441 933.497 560.747 925.094 621.124L929.056 621.675C937.601 560.281 922.131 497.936 885.926 447.871L882.685 450.214ZM967.766 507.993C946.514 480.124 917.781 459.008 884.985 447.161L883.626 450.924C915.694 462.507 943.796 483.157 964.585 510.419L967.766 507.993ZM1005.84 610.275C1003.59 573.095 990.328 537.454 967.763 507.99L964.587 510.422C986.666 539.251 999.648 574.128 1001.84 610.516L1005.84 610.275ZM980.34 716.472C999.196 684.458 1008.08 647.455 1005.84 610.275L1001.84 610.516C1004.04 646.904 995.344 683.116 976.894 714.442L980.34 716.472ZM900.104 789.778C933.528 774.03 961.485 748.486 980.34 716.472L976.894 714.442C958.443 745.768 931.092 770.756 898.399 786.16L900.104 789.778ZM792.932 804.767C829.336 810.75 866.68 805.527 900.104 789.778L898.399 786.16C865.707 801.564 829.184 806.671 793.581 800.82L792.932 804.767ZM376.381 225.497C336.063 256.796 307.007 300.573 293.65 350.13L297.512 351.171C310.643 302.449 339.208 259.418 378.834 228.657L376.381 225.497ZM473.384 180.592C438.052 187.81 404.851 203.18 376.373 225.503L378.841 228.651C406.832 206.71 439.463 191.604 474.185 184.512L473.384 180.592ZM580.05 183.9C545.222 174.507 508.717 173.375 473.384 180.592L474.185 184.512C508.907 177.419 544.782 178.531 579.008 187.762L580.05 183.9ZM540.823 88.0888C562.467 116.269 575.255 150.359 577.533 185.958L581.525 185.703C579.196 149.315 566.125 114.464 543.995 85.6523L540.823 88.0888ZM421.343 18.8693C468.673 25.0202 511.651 49.9151 540.82 88.0849L543.998 85.6561C514.187 46.6454 470.253 21.1919 421.859 14.9026L421.343 18.8693ZM288.425 55.2802C326.202 25.814 374.014 12.7184 421.343 18.8693L421.859 14.9026C373.464 8.61335 324.581 22.0049 285.965 52.1262L288.425 55.2802ZM219.907 176.008C225.998 128.173 250.647 84.747 288.425 55.2802L285.965 52.1262C247.348 82.2469 222.162 126.628 215.939 175.503L219.907 176.008ZM224.708 246.794C218.523 223.746 216.892 199.693 219.907 176.008L215.939 175.503C212.858 199.703 214.525 224.28 220.845 247.831L224.708 246.794ZM255.954 310.331C241.511 291.431 230.894 269.841 224.708 246.794L220.845 247.831C227.165 271.381 238.015 293.444 252.776 312.76L255.954 310.331ZM296.704 348.995C281.138 338.427 267.377 325.37 255.958 310.336L252.773 312.755C264.453 328.134 278.531 341.491 294.458 352.305L296.704 348.995ZM671.96 772.549C720.368 778.883 769.283 765.544 807.958 735.468L805.502 732.31C767.667 761.734 719.823 774.778 672.479 768.583L671.96 772.549ZM549.807 701.692C579.618 740.727 623.552 766.214 671.96 772.549L672.479 768.583C625.135 762.387 582.155 737.458 552.986 699.264L549.807 701.692ZM522.262 650.597C528.64 669.027 537.944 686.286 549.811 701.698L552.981 699.258C541.378 684.189 532.279 667.312 526.042 649.289L522.262 650.597ZM685.645 578.492C642.971 622.254 584.92 647.212 524.128 647.943L524.176 651.943C586.036 651.199 645.098 625.802 688.509 581.284L685.645 578.492ZM751.977 414.263C752.162 475.705 728.32 534.729 685.645 578.492L688.509 581.284C731.919 536.767 756.165 476.734 755.977 414.251L751.977 414.263ZM841.097 474.677C819.059 445.671 788.947 423.971 754.618 412.363L753.337 416.152C786.904 427.503 816.355 448.723 837.912 477.097L841.097 474.677ZM877.947 611.992C884.158 563.097 870.905 513.707 841.094 474.673L837.915 477.101C867.085 515.296 880.058 563.632 873.979 611.488L877.947 611.992ZM807.962 735.465C846.567 705.299 871.736 660.888 877.947 611.992L873.979 611.488C867.9 659.345 843.267 702.801 805.499 732.313L807.962 735.465ZM453.195 696.369C415.302 724.463 368.04 736.471 321.506 729.833L320.941 733.793C368.522 740.58 416.841 728.301 455.578 699.582L453.195 696.369ZM476.541 674.301C469.437 682.382 461.608 689.78 453.153 696.401L455.62 699.55C464.269 692.777 472.278 685.208 479.545 676.942L476.541 674.301ZM465.996 645.372C468.513 655.993 471.928 666.376 476.203 676.406L479.883 674.838C475.697 665.016 472.353 654.85 469.888 644.45L465.996 645.372ZM333.24 560.138C366.669 603.908 414.132 634.57 467.493 646.86L468.391 642.962C415.944 630.883 369.285 600.744 336.419 557.71L333.24 560.138ZM284.266 406.964C282.499 462.214 299.811 516.367 333.24 560.138L336.419 557.71C303.552 514.675 286.526 461.425 288.264 407.092L284.266 406.964ZM258.246 391.02C266.734 397.739 275.794 403.686 285.32 408.791L287.21 405.265C277.893 400.272 269.031 394.456 260.729 387.884L258.246 391.02ZM233.254 408.39C241.703 401.767 250.791 396.022 260.38 391.242L258.595 387.662C248.764 392.563 239.448 398.453 230.787 405.242L233.254 408.39ZM167.834 528.598C173.284 481.42 196.777 438.27 233.288 408.363L230.753 405.269C193.433 435.839 169.429 479.936 163.861 528.139L167.834 528.598ZM204.128 660.835C175.412 623.234 162.385 575.776 167.834 528.598L163.861 528.139C158.293 576.342 171.602 624.836 200.95 663.263L204.128 660.835ZM321.506 729.833C274.971 723.195 232.844 698.435 204.128 660.835L200.95 663.263C230.298 701.69 273.36 727.005 320.941 733.793L321.506 729.833ZM490.012 878.181C538.398 884.469 587.275 871.118 625.929 841.058L623.473 837.901C585.659 867.308 537.85 880.365 490.527 874.215L490.012 878.181ZM367.825 807.519C397.687 846.48 441.626 871.893 490.012 878.181L490.527 874.215C443.204 868.065 400.22 843.208 371 805.086L367.825 807.519ZM355.85 789.538C359.446 795.791 363.446 801.797 367.824 807.518L371.001 805.087C366.729 799.505 362.826 793.645 359.318 787.544L355.85 789.538ZM485.198 738.332C448.403 767.046 403.879 783.851 357.468 786.544L357.7 790.538C404.926 787.797 450.226 770.697 487.658 741.485L485.198 738.332ZM502.807 722.337C497.292 728.062 491.405 733.409 485.185 738.341L487.671 741.475C494.03 736.432 500.049 730.965 505.688 725.112L502.807 722.337ZM511.761 731.317C509.599 728.636 507.67 725.771 505.996 722.754L502.498 724.695C504.284 727.912 506.341 730.967 508.646 733.827L511.761 731.317ZM646.708 817.185C593.043 805.765 545.189 775.326 511.796 731.363L508.611 733.782C542.579 778.504 591.267 809.477 645.875 821.097L646.708 817.185ZM625.914 841.069C633.897 834.977 641.233 828.067 647.806 820.447L644.777 817.835C638.385 825.245 631.25 831.966 623.488 837.889L625.914 841.069ZM199.094 363.715C161.621 392.854 133.742 432.752 119.11 478.175L122.917 479.401C137.304 434.739 164.714 395.516 201.549 366.872L199.094 363.715ZM219.054 349.929C212.099 354.075 205.425 358.685 199.077 363.728L201.565 366.86C207.774 361.928 214.3 357.419 221.102 353.364L219.054 349.929ZM211.491 344.745C213.633 347.741 216.043 350.533 218.689 353.086L221.467 350.207C218.996 347.823 216.745 345.216 214.744 342.418L211.491 344.745ZM163.34 188.062C160.193 244.463 177.303 300.119 211.53 344.798L214.705 342.365C181.062 298.449 164.24 243.736 167.334 188.285L163.34 188.062ZM141.057 206.128C148.852 199.846 157.292 194.426 166.23 189.963L164.443 186.384C155.247 190.976 146.565 196.552 138.547 203.014L141.057 206.128ZM94.791 259.676C106.571 238.934 122.285 220.745 141.031 206.149L138.573 202.993C119.411 217.913 103.351 236.504 91.3128 257.701L94.791 259.676ZM72.3823 327.026C75.3957 303.305 83.0109 280.418 94.791 259.676L91.3128 257.701C79.2743 278.898 71.4932 302.285 68.4142 326.522L72.3823 327.026ZM77.2312 397.913C71.0168 374.836 69.369 350.748 72.3823 327.026L68.4142 326.522C65.3353 350.76 67.0189 375.373 73.3688 398.953L77.2312 397.913ZM108.596 461.507C94.1043 442.6 83.4456 420.99 77.2312 397.913L73.3688 398.953C79.7187 422.533 90.6104 444.617 105.421 463.94L108.596 461.507ZM122.43 477.376C117.476 472.406 112.855 467.106 108.6 461.513L105.417 463.934C109.779 469.669 114.517 475.104 119.597 480.2L122.43 477.376ZM156.321 862.124C203.902 868.911 252.222 856.632 290.958 827.913L288.576 824.7C250.682 852.794 203.421 864.802 156.886 858.164L156.321 862.124ZM36.3297 791.594C65.6779 830.021 108.74 855.336 156.321 862.124L156.886 858.164C110.351 851.526 68.2246 826.766 39.5087 789.166L36.3297 791.594ZM-0.759039 656.47C-6.32687 704.673 6.98207 753.167 36.3297 791.594L39.5087 789.166C10.7922 751.565 -2.23494 704.107 3.21454 656.929L-0.759039 656.47ZM66.1335 533.6C28.8132 564.17 4.80882 608.267 -0.759039 656.47L3.21454 656.929C8.664 609.751 32.1569 566.601 68.6682 536.694L66.1335 533.6ZM88.8829 518.869C80.9406 523.147 73.3498 528.06 66.1831 533.561L68.6185 536.734C75.6156 531.363 83.0263 526.567 90.7798 522.391L88.8829 518.869ZM111.416 537.149C104.252 531.718 97.5168 525.731 91.2724 519.243L88.3903 522.017C94.7787 528.655 101.669 534.78 109 540.337L111.416 537.149ZM159.981 695.591C125.845 650.894 108.873 595.222 112.205 538.861L108.212 538.625C104.823 595.939 122.082 652.557 156.802 698.019L159.981 695.591ZM297.9 782.023C243.108 770.987 194.117 740.287 159.981 695.591L156.802 698.019C191.523 743.481 241.361 774.715 297.11 785.944L297.9 782.023ZM311.122 807.102C306.462 799.557 302.528 791.577 299.374 783.273L295.635 784.693C298.879 793.235 302.925 801.442 307.719 809.204L311.122 807.102ZM290.993 827.887C298.137 822.345 304.797 816.194 310.898 809.5L307.942 806.806C301.995 813.33 295.504 819.326 288.541 824.726L290.993 827.887Z" fill="url(#paint0_linear)" fill-opacity="0.15" mask="url(#path-1-inside-1)"/>
<defs>
<linearGradient id="paint0_linear" x1="502.088" y1="-117" x2="502.088" y2="877.704" gradientUnits="userSpaceOnUse">
<stop stop-color="#E5DDF1"/>
<stop offset="1" stop-color="#B4A7C9"/>
</linearGradient>
</defs>
</svg>
